<?xml version="1.0" encoding="utf-8"?>
<!-- Generator: Adobe Illustrator 25.2.1, SVG Export Plug-In . SVG Version: 6.00 Build 0)  -->
<svg version="1.1" id="Layer_2" xmlns="http://www.w3.org/2000/svg" xmlns:xlink="http://www.w3.org/1999/xlink" x="0px" y="0px" width="150px" height="150px" 
	 viewBox="0 0 512 512" style="enable-background:new 0 0 512 512;" xml:space="preserve">
<style type="text/css">
	.st0{fill:url(#SVGID_1_);}
	.st1{fill:url(#SVGID_2_);}
	.st2{fill:url(#SVGID_3_);}
	.st3{fill:#00FF00;}
</style>
<linearGradient id="SVGID_1_" gradientUnits="userSpaceOnUse" x1="137.0226" y1="15.3829" x2="415.2715" y2="410.577">
	<stop  offset="0" style="stop-color:#FFFFFF"/>
	<stop  offset="7.380247e-03" style="stop-color:#F6F6F6"/>
	<stop  offset="4.767627e-02" style="stop-color:#C8C8C8"/>
	<stop  offset="9.308982e-02" style="stop-color:#9D9D9D"/>
	<stop  offset="0.1419" style="stop-color:#777777"/>
	<stop  offset="0.195" style="stop-color:#575757"/>
	<stop  offset="0.2537" style="stop-color:#3B3B3B"/>
	<stop  offset="0.32" style="stop-color:#252525"/>
	<stop  offset="0.3974" style="stop-color:#141414"/>
	<stop  offset="0.4931" style="stop-color:#090909"/>
	<stop  offset="0.6274" style="stop-color:#020202"/>
	<stop  offset="1" style="stop-color:#000000"/>
</linearGradient>
<path class="st0" d="M251.5,5.5c-116.2,0-200,81.2-200,172.2c0,43.4,18.7,83,49.5,113.3c18.9,18.6,48.6,57.5,59.6,90.2v0.1
	c0-4.7,8.5-7.3,6.8-11.7c-6.4-17.4-18.4-46.4-63.1-90.4c-23.3-22.9-41.9-64.5-42-94.8C48.5,103.9,150.6,14.8,244.4,15.8
	c90.2,0.9,202.5,75.9,198.3,155.1c-1.6,30.3-7.8,75.3-31,98.1c-44.4,43.7-62.8,83-69.3,100.6c-1.7,4.5,0.1,7,0.1,11.7v0
	c11-32.7,40.7-71.6,59.6-90.2c30.8-30.3,49.5-69.9,49.5-113.3C451.5,82.6,361.9,5.5,251.5,5.5z"/>
<linearGradient id="SVGID_2_" gradientUnits="userSpaceOnUse" x1="15.6228" y1="95.8582" x2="293.8717" y2="491.0523">
	<stop  offset="0" style="stop-color:#FFFFFF"/>
	<stop  offset="7.380247e-03" style="stop-color:#F6F6F6"/>
	<stop  offset="4.767627e-02" style="stop-color:#C8C8C8"/>
	<stop  offset="9.308982e-02" style="stop-color:#9D9D9D"/>
	<stop  offset="0.1419" style="stop-color:#777777"/>
	<stop  offset="0.195" style="stop-color:#575757"/>
	<stop  offset="0.2537" style="stop-color:#3B3B3B"/>
	<stop  offset="0.32" style="stop-color:#252525"/>
	<stop  offset="0.3974" style="stop-color:#141414"/>
	<stop  offset="0.4931" style="stop-color:#090909"/>
	<stop  offset="0.6274" style="stop-color:#020202"/>
	<stop  offset="1" style="stop-color:#000000"/>
</linearGradient>
<path class="st1" d="M160.6,407.6C160.6,407.6,160.6,407.6,160.6,407.6l0,42.3c0,3.1,1.1,6.1,3,8.7l27.9,36c3.4,4.4,9.1,7,15.1,7
	h89.6c6.1,0,11.8-2.6,15.1-7l27.9-36c2-2.6,3-5.6,3-8.7l0.1-42.2c0,0,0,0-0.1,0H160.6z"/>
<linearGradient id="SVGID_3_" gradientUnits="userSpaceOnUse" x1="150.5513" y1="5.8576" x2="428.8002" y2="401.0517">
	<stop  offset="0" style="stop-color:#FFFFFF"/>
	<stop  offset="7.380247e-03" style="stop-color:#F6F6F6"/>
	<stop  offset="4.767627e-02" style="stop-color:#C8C8C8"/>
	<stop  offset="9.308982e-02" style="stop-color:#9D9D9D"/>
	<stop  offset="0.1419" style="stop-color:#777777"/>
	<stop  offset="0.195" style="stop-color:#575757"/>
	<stop  offset="0.2537" style="stop-color:#3B3B3B"/>
	<stop  offset="0.32" style="stop-color:#252525"/>
	<stop  offset="0.3974" style="stop-color:#141414"/>
	<stop  offset="0.4931" style="stop-color:#090909"/>
	<stop  offset="0.6274" style="stop-color:#020202"/>
	<stop  offset="1" style="stop-color:#000000"/>
</linearGradient>
<path class="st2" d="M249.1,49.5c10.6,1,18.5,9,17.8,3.2c-0.6-5.1-8.7-7.9-18.1-9.2c-48.5-6.8-101.8,22.2-109.1,58.8
	c-1,5.3-2.3,9.7,6.9,10.1c0-0.4,0.1-0.7,0.2-1C136.5,85.1,194.9,44.2,249.1,49.5z"/>
<g id="Layer_1" focusable="false">
	<path class="st3" d="M127.1,127.4H89.5c0,86.6,59,156.9,131.7,156.9v100.8c0,6.2,4.2,11.2,9.4,11.2h18.8c5.2,0,9.4-5,9.4-11.2
		V284.2C258.8,197.6,199.8,127.4,127.1,127.4z M352.9,82.5c-49.5,0-92.5,32.6-115,80.7c16.3,21.2,28.3,46.9,34.7,75.4
		c66.3-8.2,118-74.9,118-156H352.9z"/>
</g>
</svg>
