<?xml version="1.0" encoding="utf-8"?>
<!-- Generator: Adobe Illustrator 25.2.1, SVG Export Plug-In . SVG Version: 6.00 Build 0)  -->
<svg version="1.1" id="Layer_1" focusable="false" xmlns="http://www.w3.org/2000/svg" xmlns:xlink="http://www.w3.org/1999/xlink"
	 x="0px" y="0px" width="50px" height="50px" viewBox="0 0 85 85" style="enable-background:new 0 0 85 85;" xml:space="preserve">
<style type="text/css">
	.st0{fill:#00FF00;stroke:#000000;stroke-miterlimit:10;}
</style>
<path class="st0" d="M46.8,74c-22.9-2.3-16.3-25.7-16.3-25.7C16.4,45.8,5.6,38,2.1,26.5c-0.7-2.4,2.9-3.6,3.7-1.1
	c2.9,9.7,11.7,16.2,23.4,18.7c-4.2-5.5-9.4-16.6,5.2-27.9c11.5,14.4,5.3,24.4,1,28.8c4.1,0.4,8.4,0.3,12.9-0.3c0,0-9.4-20,8.1-26.7
	c12.4,15.8-4.8,26.3-4.8,26.3c2.6-0.5,8-1.8,8.2-1.9c0,0,6.4-19.2,23.1-13c-1,20.6-21.7,16.4-21.7,16.4c-0.2,0.1-3.5,1.1-5,1.5
	c0,0,15.3,2.9,14.6,17.9c-20.3,5.3-22.2-16.6-22.2-16.6c-4.3,0.5-8.5,0.7-12.5,0.4C36.2,49,53.6,57.4,46.8,74z"/>
</svg>
