<svg aria-hidden="true" focusable="false" data-prefix="fas" data-icon="seedling" class="svg-inline--fa fa-seedling fa-w-16" role="img" xmlns="http://www.w3.org/2000/svg" x="0px" y="0px" width="85px" height="85px" viewBox="0 0 512 512" enable-background="new 0 0 80 80" xml:space="preserve">
<g>
<path fill="#00ff00" d="M64 96H0c0 123.7 100.3 224 224 224v144c0 8.8 7.2 16 16 16h32c8.8 0 16-7.2 16-16V320C288 196.3 187.7 96 64 96zm384-64c-84.2 0-157.4 46.5-195.7 115.2 27.7 30.2 48.2 66.9 59 107.6C424 243.1 512 147.9 512 32h-64z"></path>
</g>
<g>
  <path fill="#FFFFFF" d="M40,0c22.091,0,40,17.909,40,40S62.091,80,40,80S0,62.091,0,40S17.909,0,40,0z"/>
</g>
</svg>